<svg preserveAspectRatio="none" width="100%" height="100%" overflow="visible" style="display: block;" viewBox="0 0 16 16" fill="none" xmlns="http://www.w3.org/2000/svg">
<g id="Glyph / IconHelpCircle" clip-path="url(#clip0_0_50)">
<path id="Vector" fill-rule="evenodd" clip-rule="evenodd" d="M8 15.3333C9.94492 15.3333 11.8102 14.5607 13.1855 13.1855C14.5607 11.8102 15.3333 9.94492 15.3333 8C15.3333 6.05508 14.5607 4.18982 13.1855 2.81455C11.8102 1.43928 9.94492 0.666666 8 0.666666C6.05508 0.666666 4.18982 1.43928 2.81455 2.81455C1.43928 4.18982 0.666666 6.05508 0.666666 8C0.666666 9.94492 1.43928 11.8102 2.81455 13.1855C4.18982 14.5607 6.05508 15.3333 8 15.3333ZM7.88667 9.73333C7.31333 9.73333 7.02 9.38 7.02 8.91333C7.02 8.21333 7.37333 7.76667 8.18 7.15333L8.22 7.12C8.77333 6.70667 9.15333 6.41333 9.15333 5.88667C9.15333 5.28667 8.6 4.95333 7.98 4.95333C7.47333 4.95333 7.08667 5.14 6.78 5.53333C6.56 5.76 6.38 5.88667 6.08 5.88667C5.58667 5.88667 5.33333 5.53333 5.33333 5.13333C5.33333 4.73333 5.56 4.32 5.92 4.01333C6.5711 3.52521 7.3744 3.28422 8.18667 3.33333C9.99333 3.33333 11.2667 4.22667 11.2667 5.76C11.2667 6.88 10.6 7.42667 9.8 7.96667C9.26667 8.36 9.02 8.58667 8.81333 9.04667C8.59333 9.44667 8.42667 9.74 7.88 9.74L7.88667 9.73333ZM7.87333 12.5133C7.24667 12.5133 6.73333 12.1133 6.73333 11.4867C6.73333 10.86 7.24667 10.4533 7.86667 10.4533C8.5 10.4533 9 10.8533 9 11.4867C9 12.1067 8.5 12.5133 7.86667 12.5133H7.87333Z" fill="var(--fill-0, #8C8E92)"/>
</g>
<defs>
<clipPath id="clip0_0_50">
<rect width="16" height="16" fill="white"/>
</clipPath>
</defs>
</svg>
