<svg preserveAspectRatio="none" width="100%" height="100%" overflow="visible" style="display: block;" viewBox="0 0 16 16" fill="none" xmlns="http://www.w3.org/2000/svg">
<g id="Glyph / IconCalendar">
<path id="Vector" fill-rule="evenodd" clip-rule="evenodd" d="M2.66667 13.3333V5.33333H13.3333V13.3333H2.66667ZM1.33333 2.66667C1.33333 1.93333 1.93333 1.33333 2.66667 1.33333H13.3333C13.687 1.33333 14.0261 1.47381 14.2761 1.72386C14.5262 1.97391 14.6667 2.31304 14.6667 2.66667V13.3333C14.6667 13.687 14.5262 14.0261 14.2761 14.2761C14.0261 14.5262 13.687 14.6667 13.3333 14.6667H2.66667C2.31304 14.6667 1.97391 14.5262 1.72386 14.2761C1.47381 14.0261 1.33333 13.687 1.33333 13.3333V2.66667ZM4 7C4 6.81333 4.14667 6.66667 4.33333 6.66667H5.66667C5.85333 6.66667 6 6.81333 6 7V8.33333C6 8.42174 5.96488 8.50652 5.90237 8.56904C5.83986 8.63155 5.75507 8.66667 5.66667 8.66667H4.33333C4.24493 8.66667 4.16014 8.63155 4.09763 8.56904C4.03512 8.50652 4 8.42174 4 8.33333V7ZM4.33333 10C4.24493 10 4.16014 10.0351 4.09763 10.0976C4.03512 10.1601 4 10.2449 4 10.3333V11.6667C4 11.8533 4.14667 12 4.33333 12H5.66667C5.75507 12 5.83986 11.9649 5.90237 11.9024C5.96488 11.8399 6 11.7551 6 11.6667V10.3333C6 10.2449 5.96488 10.1601 5.90237 10.0976C5.83986 10.0351 5.75507 10 5.66667 10H4.33333ZM7 7C7 6.81333 7.14667 6.66667 7.33333 6.66667H8.66667C8.85333 6.66667 9 6.81333 9 7V8.33333C9 8.42174 8.96488 8.50652 8.90237 8.56904C8.83986 8.63155 8.75507 8.66667 8.66667 8.66667H7.33333C7.24493 8.66667 7.16014 8.63155 7.09763 8.56904C7.03512 8.50652 7 8.42174 7 8.33333V7ZM7.33333 10C7.24493 10 7.16014 10.0351 7.09763 10.0976C7.03512 10.1601 7 10.2449 7 10.3333V11.6667C7 11.8533 7.14667 12 7.33333 12H8.66667C8.75507 12 8.83986 11.9649 8.90237 11.9024C8.96488 11.8399 9 11.7551 9 11.6667V10.3333C9 10.2449 8.96488 10.1601 8.90237 10.0976C8.83986 10.0351 8.75507 10 8.66667 10H7.33333ZM10 7C10 6.81333 10.1467 6.66667 10.3333 6.66667H11.6667C11.8533 6.66667 12 6.81333 12 7V8.33333C12 8.42174 11.9649 8.50652 11.9024 8.56904C11.8399 8.63155 11.7551 8.66667 11.6667 8.66667H10.3333C10.2449 8.66667 10.1601 8.63155 10.0976 8.56904C10.0351 8.50652 10 8.42174 10 8.33333V7ZM10.3333 10C10.2449 10 10.1601 10.0351 10.0976 10.0976C10.0351 10.1601 10 10.2449 10 10.3333V11.6667C10 11.8533 10.1467 12 10.3333 12H11.6667C11.7551 12 11.8399 11.9649 11.9024 11.9024C11.9649 11.8399 12 11.7551 12 11.6667V10.3333C12 10.2449 11.9649 10.1601 11.9024 10.0976C11.8399 10.0351 11.7551 10 11.6667 10H10.3333Z" fill="var(--fill-0, #8C8E92)"/>
</g>
</svg>
